<svg xmlns="http://www.w3.org/2000/svg"  width="60" 
   height="120" viewBox="570 620 850 770" version="1.1"><path d="M 956.500 211.666 C 924.154 213.221, 887.842 218.769, 869.872 224.902 C 859.096 228.579, 852.811 231.144, 853.322 231.655 C 853.544 231.878, 863.801 230.935, 876.113 229.561 C 928.660 223.694, 948.196 222.577, 999 222.537 C 1051.459 222.496, 1083.074 224.212, 1128.500 229.568 C 1144.390 231.441, 1145.553 231.317, 1139.214 228.422 C 1123.310 221.158, 1086.456 214.645, 1046.517 212.042 C 1032.456 211.125, 972.929 210.877, 956.500 211.666 M 1241.923 274.320 C 1240.689 277.228, 1242.521 284.902, 1245.668 290 C 1247.986 293.757, 1260.957 306.033, 1263.716 307.082 C 1266.749 308.235, 1271 308.275, 1271 307.149 C 1271 301.140, 1260.351 285.918, 1250.388 277.685 C 1248.650 276.249, 1242.194 273.682, 1241.923 274.320 M 748.159 279.157 C 742.184 284.017, 736.107 291.693, 731.898 299.693 C 727.909 307.276, 728.047 308.297, 732.985 307.726 C 739.514 306.972, 753.538 293.744, 756.791 285.273 C 760.863 274.665, 757.024 271.946, 748.159 279.157 M 678.843 353.519 C 675.712 360.622, 674.633 364, 675.495 364 C 676.565 364, 682.128 350.903, 681.794 349.171 C 681.622 348.273, 680.294 350.230, 678.843 353.519 M 1318 349.618 C 1318 352.011, 1323.960 364.374, 1324.738 363.595 C 1325.344 362.989, 1321.287 352.445, 1319.326 349.527 C 1318.016 347.578, 1318 347.579, 1318 349.618 M 687.810 399.821 C 683.847 403.884, 682.006 410.683, 682.379 419.875 C 682.779 429.730, 684.657 434.873, 688.507 436.656 C 689.879 437.293, 690.732 437.375, 690.401 436.840 C 690.070 436.304, 690.632 436.009, 691.650 436.183 C 693.372 436.478, 693.519 435.462, 693.775 421.446 C 694.159 400.431, 692.628 394.882, 687.810 399.821 M 1307.996 399.003 C 1306.900 399.680, 1306.539 403.839, 1306.319 418.362 L 1306.039 436.859 1308.769 436.499 C 1310.271 436.300, 1312.051 436.107, 1312.724 436.069 C 1315.266 435.926, 1317.302 429.558, 1317.790 420.220 C 1318.197 412.444, 1317.968 410.322, 1316.388 407.214 C 1315.350 405.171, 1314.162 403.350, 1313.750 403.167 C 1313.338 402.983, 1313 402.212, 1313 401.452 C 1313 399.546, 1309.717 397.939, 1307.996 399.003 M 958 435.696 C 839.936 441.340, 744.284 473.314, 707.069 519.574 C 699.758 528.662, 692.791 542.711, 690.494 553 C 682.239 589.964, 695.372 698.787, 726.999 855.498 L 734.063 890.496 737.504 943.498 C 745.100 1060.492, 752.277 1192.097, 756.454 1291 C 757.279 1310.525, 758.194 1331.900, 758.489 1338.500 C 762.287 1423.546, 765.581 1583.228, 764.443 1627.140 L 763.752 1653.780 750.126 1654.208 C 740.175 1654.521, 735.425 1655.103, 732.514 1656.366 C 726.873 1658.813, 724 1661.816, 724 1665.263 L 724 1668.178 726.975 1665.675 C 733.498 1660.185, 716.901 1660.500, 1000 1660.500 C 1283.099 1660.500, 1266.502 1660.185, 1273.025 1665.675 L 1276 1668.178 1276 1665.263 C 1276 1661.816, 1273.127 1658.813, 1267.486 1656.366 C 1264.569 1655.100, 1259.814 1654.521, 1249.750 1654.205 L 1236 1653.773 1235.814 1631.137 C 1235.711 1618.686, 1235.562 1607.150, 1235.482 1605.500 C 1235.123 1598.042, 1236.976 1477.804, 1237.956 1445 C 1242.491 1293.291, 1252.437 1093.567, 1264.051 921 L 1266.104 890.500 1274.505 848.500 C 1297.721 732.438, 1310.196 647.184, 1311.678 594.454 C 1312.607 561.447, 1310.052 546.068, 1301.175 531.222 C 1269.715 478.608, 1176.181 443.643, 1046.500 436.019 C 1031.193 435.119, 974.406 434.912, 958 435.696 M 666.609 611.750 C 666.251 616.563, 665.297 630.775, 664.487 643.334 C 663.677 655.892, 662.786 666.538, 662.506 666.990 C 662.227 667.442, 657.720 670.217, 652.491 673.156 C 645.453 677.112, 643.149 678.890, 643.620 680 C 645.304 683.966, 648.913 697.456, 650.518 705.788 L 652.308 715.076 656.791 714.404 L 661.273 713.732 660.509 746.116 C 659.440 791.484, 659.687 975.641, 660.922 1054 C 662.741 1169.382, 662.990 1183.208, 663.533 1199 C 663.826 1207.525, 664.729 1241.500, 665.541 1274.500 C 667.808 1366.726, 671.195 1480.875, 673.503 1542.842 C 674.329 1565.030, 674.808 1583.501, 674.568 1583.889 C 674.328 1584.278, 674.468 1585.138, 674.878 1585.802 C 675.330 1586.534, 676.737 1584.152, 678.452 1579.754 C 680.007 1575.764, 685.068 1563.521, 689.696 1552.547 C 694.325 1541.573, 699.694 1528.073, 701.628 1522.547 C 707.944 1504.494, 716.090 1467.997, 721.509 1433.469 L 724.173 1416.500 723.677 1310.500 C 723.405 1252.200, 722.698 1196.400, 722.106 1186.500 C 721.515 1176.600, 720.567 1159.275, 720 1148 C 712.382 996.497, 703.663 882.162, 695.483 826.500 C 691.838 801.693, 683.770 738.392, 681.974 720.500 C 681.367 714.450, 679.580 699.150, 678.003 686.500 C 676.426 673.850, 673.656 649.888, 671.846 633.250 C 670.037 616.612, 668.264 603, 667.907 603 C 667.550 603, 666.966 606.938, 666.609 611.750 M 1331.622 604.107 C 1331.388 604.873, 1328.866 625.975, 1326.018 651 C 1323.170 676.025, 1319.533 707.975, 1317.936 722 C 1313.935 757.139, 1309.424 792.648, 1305.866 817 C 1296.780 879.200, 1289.749 968.678, 1281.035 1133 C 1276.720 1214.387, 1276.009 1242.757, 1276.004 1333.931 L 1276 1415.361 1278.563 1431.931 C 1283.772 1465.608, 1291.508 1501.366, 1297.507 1519.500 C 1299.509 1525.550, 1306.288 1542.766, 1312.573 1557.758 C 1318.858 1572.750, 1324 1585.463, 1324 1586.008 C 1324 1586.554, 1324.414 1587, 1324.921 1587 C 1325.438 1587, 1325.875 1580.321, 1325.919 1571.750 C 1325.961 1563.362, 1326.448 1545.250, 1327 1531.500 C 1327.552 1517.750, 1328.452 1491.425, 1328.999 1473 C 1331.378 1392.956, 1333.030 1334.743, 1333.993 1297 C 1334.562 1274.725, 1335.460 1240.750, 1335.990 1221.500 C 1339.723 1085.883, 1341.700 828.090, 1339.632 746.621 L 1338.798 713.743 1343.344 714.424 L 1347.889 715.106 1348.557 711.303 C 1350.300 701.378, 1352.083 693.815, 1354.402 686.512 C 1356.759 679.090, 1356.815 678.472, 1355.217 677.530 C 1354.272 676.974, 1349.900 674.488, 1345.500 672.005 L 1337.500 667.491 1336.801 659.996 C 1336.417 655.873, 1335.375 641.483, 1334.485 628.017 C 1333.596 614.552, 1332.683 603.350, 1332.457 603.124 C 1332.232 602.898, 1331.856 603.341, 1331.622 604.107 M 633.500 719.113 C 626.489 720.128, 602.114 726.667, 588.783 731.109 C 573.502 736.201, 554 747.390, 554 751.065 C 554 753.083, 587.827 749.207, 603.030 745.447 C 609.138 743.937, 617.723 740.821, 623.636 737.967 C 632.285 733.794, 634.670 732.081, 639.887 726.301 C 645.043 720.588, 645.727 719.418, 644.251 718.834 C 642.110 717.986, 641.098 718.012, 633.500 719.113 M 956 857.089 C 881.866 860.869, 805.212 872.150, 758.897 886.097 C 751.529 888.316, 745.215 890.439, 744.866 890.816 C 744.517 891.192, 744.614 896.675, 745.081 903 C 746.792 926.136, 754.026 1043.958, 756.963 1096.500 C 768.879 1309.712, 774.959 1481.291, 774.988 1605.250 L 775 1654 1000 1654 L 1225 1654 1225.015 1608.250 C 1225.068 1452.324, 1237.145 1164.705, 1253.946 919.242 C 1254.989 904.013, 1255.660 891.259, 1255.438 890.900 C 1255.216 890.540, 1251.314 889.094, 1246.767 887.686 C 1175.083 865.488, 1049.818 852.306, 956 857.089 M 813.748 974.427 C 805.856 977.243, 799.353 984.273, 797.029 992.500 C 796.216 995.380, 795.983 1022.828, 796.200 1090.500 L 796.500 1184.500 798.666 1188.545 C 801.513 1193.863, 808.685 1200.388, 813.584 1202.118 C 816.862 1203.275, 847.314 1203.500, 1000.500 1203.500 L 1183.500 1203.500 1188 1201.376 C 1193.989 1198.549, 1198.794 1193.627, 1201.676 1187.367 L 1204.039 1182.234 1203.770 1086.788 L 1203.500 991.342 1200.479 986.456 C 1196.954 980.755, 1190.512 975.514, 1185.225 974.046 C 1182.719 973.350, 1121.923 973.024, 999.500 973.049 C 850.059 973.081, 816.829 973.327, 813.748 974.427 M 721.594 1677 C 716.336 1694.437, 715.600 1719.923, 719.924 1734.826 C 722.229 1742.772, 726.539 1752.540, 730.074 1757.832 C 732.806 1761.922, 697.849 1732.360, 660.122 1698.678 C 653.207 1692.505, 648 1688.518, 648 1689.398 C 648 1690.247, 649.804 1696.467, 652.009 1703.221 C 656.225 1716.138, 665.172 1735.336, 669.777 1741.347 C 671.274 1743.303, 673.798 1746.690, 675.385 1748.875 C 682.620 1758.840, 685.269 1760.483, 702 1765.381 C 758.132 1781.813, 837.678 1796.552, 902 1802.438 C 941.393 1806.042, 950.775 1806.430, 999.500 1806.462 C 1048.725 1806.495, 1060.293 1806.023, 1098.500 1802.415 C 1164.543 1796.180, 1238.827 1782.440, 1296.292 1765.830 L 1314.085 1760.688 1319.188 1755.103 C 1327.349 1746.174, 1332.060 1739.265, 1338.103 1727.365 C 1343.364 1717.006, 1349.971 1699.120, 1351.536 1691 L 1352.210 1687.500 1348.355 1691.087 C 1340.007 1698.855, 1307.981 1727.030, 1299 1734.507 C 1293.775 1738.857, 1284.654 1746.643, 1278.732 1751.810 L 1267.964 1761.204 1271.441 1755.352 C 1275.938 1747.781, 1279.821 1737.381, 1281.591 1728.162 C 1283.672 1717.325, 1283.397 1699.763, 1280.959 1687.800 C 1278.814 1677.272, 1276.233 1669.735, 1276.082 1673.554 C 1275.774 1681.296, 1262.926 1695.504, 1248.277 1704.303 C 1204.424 1730.640, 1117.276 1744.950, 1000.486 1744.990 C 893.521 1745.026, 812.800 1733.461, 764.837 1711.226 C 743.562 1701.363, 728.091 1687.708, 724.478 1675.604 L 723.253 1671.500 721.594 1677 M 657.667 1703.667 C 656.055 1705.278, 657.214 1712.108, 660.068 1717.821 C 663.256 1724.200, 668.786 1729.775, 675.210 1733.087 C 679.834 1735.471, 684 1735.615, 684 1733.390 C 684 1727.993, 668.721 1707.976, 661.916 1704.456 C 658.691 1702.789, 658.567 1702.766, 657.667 1703.667 M 1337.500 1704.842 C 1330.294 1709.249, 1316 1728.199, 1316 1733.346 C 1316 1737.849, 1328.713 1732.508, 1334.977 1725.374 C 1339.638 1720.064, 1343.194 1711.886, 1342.812 1707.352 C 1342.436 1702.900, 1341.444 1702.431, 1337.500 1704.842" stroke="none" fill="#231b1f" fill-rule="evenodd"/><path d="M 884 195.072 C 809.088 197.980, 756.577 218.434, 713.486 261.493 C 675.758 299.191, 644.545 371.225, 639.017 433.358 C 637.206 453.704, 635.963 544.219, 637.011 579.339 C 637.551 597.400, 638.187 612.494, 638.426 612.880 C 638.665 613.266, 638.494 628.580, 638.047 646.910 C 637.402 673.312, 636.949 680.421, 635.867 681.120 C 635.115 681.605, 629.550 683.613, 623.500 685.583 C 578.250 700.315, 555.977 714.869, 550.510 733.278 C 548.300 740.721, 548.798 750.602, 551.435 751.613 C 552.067 751.856, 554.617 750.107, 557.101 747.727 C 562.599 742.460, 576.292 735.271, 588.711 731.133 C 613.193 722.976, 639.408 717.106, 643.912 718.772 C 645.748 719.451, 645.515 719.964, 641.063 725.039 L 636.215 730.566 632.460 895.533 C 628.458 1071.308, 628.220 1104.780, 629.994 1242 C 632.253 1416.777, 635.099 1539.998, 638.032 1590 C 638.564 1599.075, 639.475 1615.725, 640.055 1627 C 641.189 1649.024, 643.074 1666.697, 645.654 1679.500 L 647.266 1687.500 659.219 1698 C 665.792 1703.775, 675.772 1712.550, 681.395 1717.500 C 707.989 1740.911, 732.135 1760.917, 730.074 1757.832 C 726.539 1752.540, 722.229 1742.772, 719.924 1734.826 C 715.600 1719.923, 716.336 1694.437, 721.594 1677 L 723.253 1671.500 724.478 1675.604 C 728.091 1687.708, 743.562 1701.363, 764.837 1711.226 C 812.800 1733.461, 893.521 1745.026, 1000.486 1744.990 C 1117.276 1744.950, 1204.424 1730.640, 1248.277 1704.303 C 1262.926 1695.504, 1275.774 1681.296, 1276.082 1673.554 C 1276.233 1669.735, 1278.814 1677.272, 1280.959 1687.800 C 1283.397 1699.763, 1283.672 1717.325, 1281.591 1728.162 C 1279.815 1737.412, 1275.935 1747.787, 1271.394 1755.431 L 1267.870 1761.361 1275.185 1754.861 C 1279.208 1751.286, 1287.225 1744.417, 1293 1739.597 C 1298.775 1734.776, 1314.583 1721.082, 1328.128 1709.166 L 1352.757 1687.500 1354.862 1676.500 C 1357.689 1661.729, 1358.802 1651.184, 1359.981 1628 C 1360.526 1617.275, 1361.412 1601.075, 1361.950 1592 C 1365.053 1539.601, 1368.023 1410.713, 1369.967 1244 C 1370.521 1196.425, 1371.179 1143.100, 1371.427 1125.500 C 1371.719 1104.889, 1370.481 1030.327, 1367.950 916 C 1365.788 818.375, 1364.015 736.838, 1364.010 734.807 L 1364 731.115 1369.250 734.577 C 1382.851 743.547, 1407.737 749.638, 1438.600 751.550 L 1449.700 752.238 1450.339 748.369 C 1451.441 741.697, 1451.069 737.259, 1448.927 731.535 C 1442.261 713.718, 1419.498 699.209, 1376.982 685.677 C 1370.667 683.667, 1364.897 681.629, 1364.161 681.147 C 1362.381 679.984, 1360.939 620.584, 1362.301 604.570 C 1363.565 589.717, 1363.438 487.004, 1362.116 454.500 C 1361.433 437.702, 1360.329 424.076, 1358.997 416 C 1351.407 369.968, 1333.590 325.168, 1307.812 287.294 C 1298.262 273.263, 1288.175 262, 1275.076 250.743 C 1244.325 224.315, 1210.110 208.196, 1168.500 200.535 C 1150.139 197.154, 1138.853 196.046, 1112 194.985 C 1084.539 193.900, 912.508 193.966, 884 195.072 M 956.500 211.666 C 924.154 213.221, 887.842 218.769, 869.872 224.902 C 859.096 228.579, 852.811 231.144, 853.322 231.655 C 853.544 231.878, 863.801 230.935, 876.113 229.561 C 928.660 223.694, 948.196 222.577, 999 222.537 C 1051.459 222.496, 1083.074 224.212, 1128.500 229.568 C 1144.390 231.441, 1145.553 231.317, 1139.214 228.422 C 1123.310 221.158, 1086.456 214.645, 1046.517 212.042 C 1032.456 211.125, 972.929 210.877, 956.500 211.666 M 1241.923 274.320 C 1240.689 277.228, 1242.521 284.902, 1245.668 290 C 1247.986 293.757, 1260.957 306.033, 1263.716 307.082 C 1266.749 308.235, 1271 308.275, 1271 307.149 C 1271 301.140, 1260.351 285.918, 1250.388 277.685 C 1248.650 276.249, 1242.194 273.682, 1241.923 274.320 M 748.159 279.157 C 742.184 284.017, 736.107 291.693, 731.898 299.693 C 727.909 307.276, 728.047 308.297, 732.985 307.726 C 739.514 306.972, 753.538 293.744, 756.791 285.273 C 760.863 274.665, 757.024 271.946, 748.159 279.157 M 678.843 353.519 C 675.712 360.622, 674.633 364, 675.495 364 C 676.565 364, 682.128 350.903, 681.794 349.171 C 681.622 348.273, 680.294 350.230, 678.843 353.519 M 1318 349.618 C 1318 352.011, 1323.960 364.374, 1324.738 363.595 C 1325.344 362.989, 1321.287 352.445, 1319.326 349.527 C 1318.016 347.578, 1318 347.579, 1318 349.618 M 687.810 399.821 C 683.847 403.884, 682.006 410.683, 682.379 419.875 C 682.779 429.730, 684.657 434.873, 688.507 436.656 C 689.879 437.293, 690.732 437.375, 690.401 436.840 C 690.070 436.304, 690.632 436.009, 691.650 436.183 C 693.372 436.478, 693.519 435.462, 693.775 421.446 C 694.159 400.431, 692.628 394.882, 687.810 399.821 M 1307.996 399.003 C 1306.900 399.680, 1306.539 403.839, 1306.319 418.362 L 1306.039 436.859 1308.769 436.499 C 1310.271 436.300, 1312.051 436.107, 1312.724 436.069 C 1315.266 435.926, 1317.302 429.558, 1317.790 420.220 C 1318.197 412.444, 1317.968 410.322, 1316.388 407.214 C 1315.350 405.171, 1314.162 403.350, 1313.750 403.167 C 1313.338 402.983, 1313 402.212, 1313 401.452 C 1313 399.546, 1309.717 397.939, 1307.996 399.003 M 958 435.696 C 839.936 441.340, 744.284 473.314, 707.069 519.574 C 699.758 528.662, 692.791 542.711, 690.494 553 C 682.239 589.964, 695.372 698.787, 726.999 855.498 L 734.063 890.496 737.504 943.498 C 745.100 1060.492, 752.277 1192.097, 756.454 1291 C 757.279 1310.525, 758.194 1331.900, 758.489 1338.500 C 762.287 1423.546, 765.581 1583.228, 764.443 1627.140 L 763.752 1653.780 750.126 1654.208 C 740.175 1654.521, 735.425 1655.103, 732.514 1656.366 C 726.873 1658.813, 724 1661.816, 724 1665.263 L 724 1668.178 726.975 1665.675 C 733.498 1660.185, 716.901 1660.500, 1000 1660.500 C 1283.099 1660.500, 1266.502 1660.185, 1273.025 1665.675 L 1276 1668.178 1276 1665.263 C 1276 1661.816, 1273.127 1658.813, 1267.486 1656.366 C 1264.569 1655.100, 1259.814 1654.521, 1249.750 1654.205 L 1236 1653.773 1235.814 1631.137 C 1235.711 1618.686, 1235.562 1607.150, 1235.482 1605.500 C 1235.123 1598.042, 1236.976 1477.804, 1237.956 1445 C 1242.491 1293.291, 1252.437 1093.567, 1264.051 921 L 1266.104 890.500 1274.505 848.500 C 1297.721 732.438, 1310.196 647.184, 1311.678 594.454 C 1312.607 561.447, 1310.052 546.068, 1301.175 531.222 C 1269.715 478.608, 1176.181 443.643, 1046.500 436.019 C 1031.193 435.119, 974.406 434.912, 958 435.696 M 666.609 611.750 C 666.251 616.563, 665.297 630.775, 664.487 643.334 C 663.677 655.892, 662.786 666.538, 662.506 666.990 C 662.227 667.442, 657.720 670.217, 652.491 673.156 C 645.453 677.112, 643.149 678.890, 643.620 680 C 645.304 683.966, 648.913 697.456, 650.518 705.788 L 652.308 715.076 656.791 714.404 L 661.273 713.732 660.509 746.116 C 659.440 791.484, 659.687 975.641, 660.922 1054 C 662.741 1169.382, 662.990 1183.208, 663.533 1199 C 663.826 1207.525, 664.729 1241.500, 665.541 1274.500 C 667.808 1366.726, 671.195 1480.875, 673.503 1542.842 C 674.329 1565.030, 674.808 1583.501, 674.568 1583.889 C 674.328 1584.278, 674.468 1585.138, 674.878 1585.802 C 675.330 1586.534, 676.737 1584.152, 678.452 1579.754 C 680.007 1575.764, 685.068 1563.521, 689.696 1552.547 C 694.325 1541.573, 699.694 1528.073, 701.628 1522.547 C 707.944 1504.494, 716.090 1467.997, 721.509 1433.469 L 724.173 1416.500 723.677 1310.500 C 723.405 1252.200, 722.698 1196.400, 722.106 1186.500 C 721.515 1176.600, 720.567 1159.275, 720 1148 C 712.382 996.497, 703.663 882.162, 695.483 826.500 C 691.838 801.693, 683.770 738.392, 681.974 720.500 C 681.367 714.450, 679.580 699.150, 678.003 686.500 C 676.426 673.850, 673.656 649.888, 671.846 633.250 C 670.037 616.612, 668.264 603, 667.907 603 C 667.550 603, 666.966 606.938, 666.609 611.750 M 1331.622 604.107 C 1331.388 604.873, 1328.866 625.975, 1326.018 651 C 1323.170 676.025, 1319.533 707.975, 1317.936 722 C 1313.935 757.139, 1309.424 792.648, 1305.866 817 C 1296.780 879.200, 1289.749 968.678, 1281.035 1133 C 1276.720 1214.387, 1276.009 1242.757, 1276.004 1333.931 L 1276 1415.361 1278.563 1431.931 C 1283.772 1465.608, 1291.508 1501.366, 1297.507 1519.500 C 1299.509 1525.550, 1306.288 1542.766, 1312.573 1557.758 C 1318.858 1572.750, 1324 1585.463, 1324 1586.008 C 1324 1586.554, 1324.414 1587, 1324.921 1587 C 1325.438 1587, 1325.875 1580.321, 1325.919 1571.750 C 1325.961 1563.362, 1326.448 1545.250, 1327 1531.500 C 1327.552 1517.750, 1328.452 1491.425, 1328.999 1473 C 1331.378 1392.956, 1333.030 1334.743, 1333.993 1297 C 1334.562 1274.725, 1335.460 1240.750, 1335.990 1221.500 C 1339.723 1085.883, 1341.700 828.090, 1339.632 746.621 L 1338.798 713.743 1343.344 714.424 L 1347.889 715.106 1348.557 711.303 C 1350.300 701.378, 1352.083 693.815, 1354.402 686.512 C 1356.759 679.090, 1356.815 678.472, 1355.217 677.530 C 1354.272 676.974, 1349.900 674.488, 1345.500 672.005 L 1337.500 667.491 1336.801 659.996 C 1336.417 655.873, 1335.375 641.483, 1334.485 628.017 C 1333.596 614.552, 1332.683 603.350, 1332.457 603.124 C 1332.232 602.898, 1331.856 603.341, 1331.622 604.107 M 956 857.089 C 881.866 860.869, 805.212 872.150, 758.897 886.097 C 751.529 888.316, 745.215 890.439, 744.866 890.816 C 744.517 891.192, 744.614 896.675, 745.081 903 C 746.792 926.136, 754.026 1043.958, 756.963 1096.500 C 768.879 1309.712, 774.959 1481.291, 774.988 1605.250 L 775 1654 1000 1654 L 1225 1654 1225.015 1608.250 C 1225.068 1452.324, 1237.145 1164.705, 1253.946 919.242 C 1254.989 904.013, 1255.660 891.259, 1255.438 890.900 C 1255.216 890.540, 1251.314 889.094, 1246.767 887.686 C 1175.083 865.488, 1049.818 852.306, 956 857.089 M 813.748 974.427 C 805.856 977.243, 799.353 984.273, 797.029 992.500 C 796.216 995.380, 795.983 1022.828, 796.200 1090.500 L 796.500 1184.500 798.666 1188.545 C 801.513 1193.863, 808.685 1200.388, 813.584 1202.118 C 816.862 1203.275, 847.314 1203.500, 1000.500 1203.500 L 1183.500 1203.500 1188 1201.376 C 1193.989 1198.549, 1198.794 1193.627, 1201.676 1187.367 L 1204.039 1182.234 1203.770 1086.788 L 1203.500 991.342 1200.479 986.456 C 1196.954 980.755, 1190.512 975.514, 1185.225 974.046 C 1182.719 973.350, 1121.923 973.024, 999.500 973.049 C 850.059 973.081, 816.829 973.327, 813.748 974.427 M 657.667 1703.667 C 656.055 1705.278, 657.214 1712.108, 660.068 1717.821 C 663.256 1724.200, 668.786 1729.775, 675.210 1733.087 C 679.834 1735.471, 684 1735.615, 684 1733.390 C 684 1727.993, 668.721 1707.976, 661.916 1704.456 C 658.691 1702.789, 658.567 1702.766, 657.667 1703.667 M 1337.500 1704.842 C 1330.294 1709.249, 1316 1728.199, 1316 1733.346 C 1316 1737.849, 1328.713 1732.508, 1334.977 1725.374 C 1339.638 1720.064, 1343.194 1711.886, 1342.812 1707.352 C 1342.436 1702.900, 1341.444 1702.431, 1337.500 1704.842" stroke="none" fill="#169697" fill-rule="evenodd"/></svg>